# xmcd
#
# Track frame offsets: 
#        150
#        11540
#        27527
#        41261
#        58370
#        70805
#        85931
#        98743
#        115102
#        128028
#        143594
#        161902
#        180849
#        192950
#        201909
#
# Disc length: 2889 seconds
#
# Revision: 0
# Processed by: cddbd v1.5.2PL0 Copyright (c) Steve Scherf et al.
# Submitted via: ExactAudioCopy v1.3
#
DISCID=c80b470f
DTITLE=Manuela - I Want To Be A Cowboy's Sweetheart
DYEAR=1977
DGENRE=Country
TTITLE0=I Want To Be A Cowboy's Sweetheart
TTITLE1=Tomorrow Never Comes
TTITLE2=I Forgot To Remember To Forget
TTITLE3=Wandering Man
TTITLE4=Yesterday Took Wings
TTITLE5=If You've Got The Money (I've Got The Time)
TTITLE6=Snowflakes
TTITLE7=I Wonder Where You Are Tonight
TTITLE8=The Friendship Song
TTITLE9=Born To Lose
TTITLE10=It's Hard To Explain
TTITLE11=They Set The World On Fire
TTITLE12=Midnight In Chicago
TTITLE13=Truer Than True
TTITLE14=Mysterious Fire
EXTD=
EXTT0=
EXTT1=
EXTT2=
EXTT3=
EXTT4=
EXTT5=
EXTT6=
EXTT7=
EXTT8=
EXTT9=
EXTT10=
EXTT11=
EXTT12=
EXTT13=
EXTT14=
PLAYORDER=
